<svg width="51" height="40" xmlns="http://www.w3.org/2000/svg">
 <!-- Created with Method Draw - http://github.com/duopixel/Method-Draw/ -->

 <g>
  <title>background</title>
  <rect fill="#200523" id="canvas_background" height="42" width="53" y="-1" x="-1"/>
  <g display="none" overflow="visible" y="0" x="0" height="100%" width="100%" id="canvasGrid">
   <rect fill="url(#gridpattern)" stroke-width="0" y="0" x="0" height="100%" width="100%"/>
  </g>
 </g>
 <g>
  <title>Layer 1</title>
  <path stroke="#000" id="svg_4" d="m-121.907504,-47.043136l0,0c2.301233,0 4.166751,-4.328 4.166751,-9.66686l16.666505,0l0,0c0,5.338858 1.865519,9.66686 4.166749,9.66686l0,38.666282l0,0c-2.301232,0 -4.166749,4.327996 -4.166749,9.666856l-16.666505,0c0,-5.338862 -1.865519,-9.666856 -4.166751,-9.666856l0,-38.666282z" fill-opacity="null" stroke-opacity="null" stroke-width="1.5" fill="#fff"/>
  <path stroke="#000" id="svg_5" d="m-336.807239,-45.308397l0,0c4.878613,0 8.833512,-4.21594 8.833512,-9.416567l35.332988,0l0,0c0,5.200625 3.954899,9.416567 8.833508,9.416567l0,37.66514l0,0c-4.878611,0 -8.833508,4.215936 -8.833508,9.416563l-35.332988,0c0,-5.200629 -3.954899,-9.416563 -8.833512,-9.416563l0,-37.66514z" fill-opacity="null" stroke-opacity="null" stroke-width="1.5" fill="#fff"/>
  <path id="svg_6" d="m-399.994214,33.499941l0,0c0.184096,0 0.333335,-0.074621 0.333335,-0.16667l1.3333,0l0,0c0,0.092049 0.149239,0.16667 0.333335,0.16667l0,0.66666l0,0c-0.184096,0 -0.333335,0.074621 -0.333335,0.16667l-1.3333,0c0,-0.092049 -0.149239,-0.16667 -0.333335,-0.16667l0,-0.66666z" fill-opacity="null" stroke-opacity="null" stroke-width="1.5" stroke="#000" fill="#fff"/>
  <ellipse ry="0.25" id="svg_7" cy="53.124963" cx="91.624927" stroke-width="0" fill="#200523"/>
  <text stroke="null" transform="matrix(1.2910263538360596,0,0,1.2032240629196167,-0.2546480596065521,-0.12701503932476044) " xml:space="preserve" text-anchor="start" font-family="'Shadows Into Light', serif" font-size="29" id="svg_8" y="26.374991" x="0.875022" stroke-width="0" fill="#f9f2f2">YE</text>
 </g>
</svg>