<?xml version="1.0" standalone="no"?>
<!DOCTYPE svg PUBLIC "-//W3C//DTD SVG 20010904//EN"
 "http://www.w3.org/TR/2001/REC-SVG-20010904/DTD/svg10.dtd">
<svg version="1.0" xmlns="http://www.w3.org/2000/svg"
 width="71.000000pt" height="55.000000pt" viewBox="0 0 71.000000 55.000000"
 preserveAspectRatio="xMidYMid meet">
<metadata>
Created by potrace 1.13, written by Peter Selinger 2001-2015
</metadata>
<g transform="translate(0.000000,55.000000) scale(0.100000,-0.100000)"
fill="#000000" stroke="none">
<path d="M515 531 c-50 -13 -105 -42 -125 -69 -39 -49 -15 -112 42 -112 43 0
39 -12 -10 -35 -96 -45 -132 -129 -75 -175 24 -19 36 -22 93 -17 71 6 145 33
172 64 10 11 21 34 24 51 9 43 -9 42 -75 -2 -71 -48 -171 -61 -171 -21 0 24
73 75 130 91 88 26 100 32 100 54 0 18 -6 20 -82 20 -100 0 -123 10 -84 35 31
20 94 44 119 45 15 0 15 -3 5 -20 -16 -25 -3 -37 19 -18 10 9 33 23 51 32 29
15 33 22 30 49 l-3 32 -65 2 c-36 1 -78 -2 -95 -6z"/>
<path d="M74 494 c-70 -37 -76 -44 -72 -97 l3 -46 53 40 c29 23 55 39 57 37 3
-2 -6 -20 -19 -39 -51 -75 -98 -176 -94 -205 5 -49 42 -44 99 12 l49 48 -36
-87 c-39 -97 -41 -130 -7 -135 16 -2 29 8 51 40 17 24 51 63 76 88 25 24 46
50 46 57 0 18 -31 16 -58 -3 -13 -9 -26 -14 -28 -11 -3 3 20 53 50 111 31 59
56 113 56 120 0 8 -7 20 -16 27 -18 14 -7 24 -138 -125 -32 -37 -60 -65 -63
-63 -2 3 21 50 51 105 31 55 56 112 56 126 0 23 -4 26 -34 26 -18 0 -55 -12
-82 -26z"/>
</g>
</svg>
