<?xml version="1.0" standalone="no"?>
<!DOCTYPE svg PUBLIC "-//W3C//DTD SVG 20010904//EN"
 "http://www.w3.org/TR/2001/REC-SVG-20010904/DTD/svg10.dtd">
<svg version="1.0" xmlns="http://www.w3.org/2000/svg"
 width="25.000000pt" height="28.000000pt" viewBox="0 0 25.000000 28.000000"
 preserveAspectRatio="xMidYMid meet">
<metadata>
Created by potrace 1.10, written by Peter Selinger 2001-2011
</metadata>
<g transform="translate(0.000000,28.000000) scale(0.100000,-0.100000)"
fill="#ffffff" stroke="none">
<path d="M89 248 c-68 -73 -83 -97 -72 -121 20 -43 94 -117 117 -117 31 0 74
46 58 62 -9 9 -6 19 13 44 14 18 25 44 25 58 0 29 -68 106 -94 106 -9 0 -31
-15 -47 -32z m104 -32 c15 -19 27 -40 27 -46 0 -14 -50 -80 -60 -80 -20 0 -19
35 1 56 22 23 22 24 3 46 -10 13 -20 25 -22 27 -1 3 -20 -13 -42 -34 l-39 -38
37 -43 c28 -34 39 -41 49 -32 10 8 17 8 25 0 9 -9 7 -17 -7 -32 -10 -11 -24
-20 -31 -20 -18 0 -104 104 -104 126 0 10 23 43 50 72 57 59 67 59 113 -2z
m-45 -47 c-7 -5 -10 -9 -5 -9 4 0 0 -11 -8 -24 -11 -16 -13 -26 -6 -31 6 -3
11 -11 11 -18 0 -6 -13 4 -29 23 l-29 35 26 27 c20 22 28 25 39 16 11 -9 12
-13 1 -19z"/>
</g>
</svg>
