<svg width="25" height="25" xmlns="http://www.w3.org/2000/svg" preserveAspectRatio="xMidYMid meet">
 <metadata>Created by potrace 1.10, written by Peter Selinger 2001-2011</metadata>

 <g>
  <title>background</title>
  <rect fill="none" id="canvas_background" height="27" width="27" y="-1" x="-1"/>
 </g>
 <g>
  <title>Layer 1</title>
  <g id="svg_1" fill="#ffffff" transform="translate(0,28) scale(0.10000000149011612,-0.10000000149011612) ">
   <path id="svg_2" d="m89,248c-68,-73 -83,-97 -72,-121c20,-43 94,-117 117,-117c31,0 74,46 58,62c-9,9 -6,19 13,44c14,18 25,44 25,58c0,29 -68,106 -94,106c-9,0 -31,-15 -47,-32zm104,-32c15,-19 27,-40 27,-46c0,-14 -50,-80 -60,-80c-20,0 -19,35 1,56c22,23 22,24 3,46c-10,13 -20,25 -22,27c-1,3 -20,-13 -42,-34l-39,-38l37,-43c28,-34 39,-41 49,-32c10,8 17,8 25,0c9,-9 7,-17 -7,-32c-10,-11 -24,-20 -31,-20c-18,0 -104,104 -104,126c0,10 23,43 50,72c57,59 67,59 113,-2zm-45,-47c-7,-5 -10,-9 -5,-9c4,0 0,-11 -8,-24c-11,-16 -13,-26 -6,-31c6,-3 11,-11 11,-18c0,-6 -13,4 -29,23l-29,35l26,27c20,22 28,25 39,16c11,-9 12,-13 1,-19z"/>
  </g>
 </g>
</svg>